<svg width="426" height="190" viewBox="0 0 426 190" fill="none" xmlns="http://www.w3.org/2000/svg">
<path d="M59.432 0.143997V17.68H22.824V36.624H50.216V53.648H22.824V90H0.936V0.143997H59.432ZM66.584 54.16C66.584 46.8213 67.9493 40.3787 70.68 34.832C73.496 29.2853 77.2933 25.0187 82.072 22.032C86.8507 19.0453 92.184 17.552 98.072 17.552C103.107 17.552 107.501 18.576 111.256 20.624C115.096 22.672 118.04 25.36 120.088 28.688V18.576H141.976V90H120.088V79.888C117.955 83.216 114.968 85.904 111.128 87.952C107.373 90 102.979 91.024 97.944 91.024C92.1413 91.024 86.8507 89.5307 82.072 86.544C77.2933 83.472 73.496 79.1627 70.68 73.616C67.9493 67.984 66.584 61.4987 66.584 54.16ZM120.088 54.288C120.088 48.8267 118.552 44.5173 115.48 41.36C112.493 38.2027 108.824 36.624 104.472 36.624C100.12 36.624 96.408 38.2027 93.336 41.36C90.3493 44.432 88.856 48.6987 88.856 54.16C88.856 59.6213 90.3493 63.9733 93.336 67.216C96.408 70.3733 100.12 71.952 104.472 71.952C108.824 71.952 112.493 70.3733 115.48 67.216C118.552 64.0587 120.088 59.7493 120.088 54.288ZM179.699 30.48C182.259 26.5547 185.459 23.4827 189.299 21.264C193.139 18.96 197.406 17.808 202.099 17.808V40.976H196.083C190.622 40.976 186.526 42.1707 183.795 44.56C181.064 46.864 179.699 50.96 179.699 56.848V90H157.811V18.576H179.699V30.48ZM303.697 17.808C312.572 17.808 319.612 20.496 324.817 25.872C330.108 31.248 332.753 38.7147 332.753 48.272V90H310.993V51.216C310.993 46.608 309.756 43.0667 307.281 40.592C304.892 38.032 301.564 36.752 297.297 36.752C293.03 36.752 289.66 38.032 287.185 40.592C284.796 43.0667 283.601 46.608 283.601 51.216V90H261.841V51.216C261.841 46.608 260.604 43.0667 258.129 40.592C255.74 38.032 252.412 36.752 248.145 36.752C243.878 36.752 240.508 38.032 238.033 40.592C235.644 43.0667 234.449 46.608 234.449 51.216V90H212.561V18.576H234.449V27.536C236.668 24.5493 239.569 22.2027 243.153 20.496C246.737 18.704 250.79 17.808 255.313 17.808C260.689 17.808 265.468 18.96 269.649 21.264C273.916 23.568 277.244 26.8533 279.633 31.12C282.108 27.1947 285.478 23.9947 289.745 21.52C294.012 19.0453 298.662 17.808 303.697 17.808ZM343.709 54.16C343.709 46.8213 345.074 40.3787 347.805 34.832C350.621 29.2853 354.418 25.0187 359.197 22.032C363.976 19.0453 369.309 17.552 375.197 17.552C380.232 17.552 384.626 18.576 388.381 20.624C392.221 22.672 395.165 25.36 397.213 28.688V18.576H419.101V90H397.213V79.888C395.08 83.216 392.093 85.904 388.253 87.952C384.498 90 380.104 91.024 375.069 91.024C369.266 91.024 363.976 89.5307 359.197 86.544C354.418 83.472 350.621 79.1627 347.805 73.616C345.074 67.984 343.709 61.4987 343.709 54.16ZM397.213 54.288C397.213 48.8267 395.677 44.5173 392.605 41.36C389.618 38.2027 385.949 36.624 381.597 36.624C377.245 36.624 373.533 38.2027 370.461 41.36C367.474 44.432 365.981 48.6987 365.981 54.16C365.981 59.6213 367.474 63.9733 370.461 67.216C373.533 70.3733 377.245 71.952 381.597 71.952C385.949 71.952 389.618 70.3733 392.605 67.216C395.677 64.0587 397.213 59.7493 397.213 54.288ZM212.85 100.144C222.322 100.144 230.599 102.021 237.682 105.776C244.765 109.531 250.226 114.821 254.066 121.648C257.991 128.389 259.954 136.197 259.954 145.072C259.954 153.861 257.991 161.669 254.066 168.496C250.226 175.323 244.722 180.613 237.554 184.368C230.471 188.123 222.237 190 212.85 190H179.186V100.144H212.85ZM211.442 171.056C219.719 171.056 226.162 168.795 230.77 164.272C235.378 159.749 237.682 153.349 237.682 145.072C237.682 136.795 235.378 130.352 230.77 125.744C226.162 121.136 219.719 118.832 211.442 118.832H201.074V171.056H211.442ZM294.074 117.68V135.856H323.386V152.752H294.074V172.464H327.226V190H272.186V100.144H327.226V117.68H294.074ZM425.788 100.144L393.916 190H366.524L334.652 100.144H357.948L380.22 167.984L402.62 100.144H425.788Z" fill="#344BF0"/>
</svg>
